<svg width="160" height="160" viewBox="0 0 160 160" fill="none" xmlns="http://www.w3.org/2000/svg">
<g clip-path="url(#clip0_411_8229)">
<path d="M160 0H0V160H160V0Z" fill="white"/>
<path d="M80.0001 159.76C118.041 159.76 148.88 156.407 148.88 152.27C148.88 148.133 118.041 144.78 80.0001 144.78C41.9587 144.78 11.1201 148.133 11.1201 152.27C11.1201 156.407 41.9587 159.76 80.0001 159.76Z" fill="url(#paint0_linear_411_8229)"/>
<path d="M9.74978 62.76C19.5198 72.53 34.2598 73.63 42.6798 65.21C51.0998 56.79 49.9998 42.05 40.2298 32.28C30.4598 22.51 19.8198 17.63 11.3598 25.77C11.2698 25.85 7.38978 29.74 7.29978 29.83C-1.12022 38.25 -0.0202246 52.99 9.74978 62.76Z" fill="white" stroke="#222834" stroke-width="2" stroke-miterlimit="10"/>
<path d="M48.3001 49.73C48.6201 55.52 46.7801 61.12 42.6801 65.21C34.4101 73.48 20.0301 72.56 10.2601 63.24C9.94012 57.45 11.7801 51.85 15.8801 47.76C24.1501 39.49 38.5301 40.41 48.3001 49.73Z" fill="#222834" stroke="#222834" stroke-width="2" stroke-miterlimit="10"/>
<path d="M46.7341 61.1512C55.1499 52.7354 54.0513 37.9922 44.2804 28.2212C34.5095 18.4503 19.7663 17.3518 11.3505 25.7676C2.93466 34.1834 4.0332 48.9266 13.8041 58.6975C23.575 68.4685 38.3183 69.567 46.7341 61.1512Z" fill="white" stroke="#222834" stroke-width="2" stroke-miterlimit="10"/>
<path d="M19.1598 53.3499C25.4998 59.6899 35.4698 60.7899 40.5098 54.9399C45.6198 49.0199 44.9498 40.01 38.9198 33.59C32.7898 27.0599 22.7698 26.2999 17.5698 31.9999C12.3698 37.6999 12.8298 47.0199 19.1598 53.3499Z" fill="url(#paint1_linear_411_8229)"/>
<path d="M22.2498 28.91C20.4798 29.54 18.8698 30.56 17.5698 31.99C12.5098 37.53 12.8298 47.01 19.1598 53.34C25.4998 59.68 35.4698 60.78 40.5098 54.93C45.6198 49.01 44.9498 40 38.9198 33.58C37.7598 32.35 36.4698 31.32 35.0998 30.51" stroke="#222834" stroke-width="2" stroke-linecap="round" stroke-linejoin="round"/>
<path d="M44.7599 41.79C62.5299 43.98 115.72 51.24 133.53 54.03C151.34 56.82 156.22 59.12 155.21 75.08C154.85 80.78 149.98 117.79 148.43 124C145.23 136.84 141.75 140.8 107.34 136.61C91.1199 134.64 57.1599 129.05 39.3099 126.66C20.6699 124.16 14.9899 120.82 18.6299 94.98C20.7699 79.76 22.2499 62.89 24.5099 54.35C28.1099 40.75 32.9399 40.33 44.7699 41.79H44.7599Z" fill="#222834" stroke="#222834" stroke-width="2" stroke-miterlimit="10"/>
<path d="M45.1598 38.77C62.9298 40.96 116.12 48.22 133.93 51.01C151.74 53.8 156.62 56.1 155.61 72.06C155.25 77.76 150.38 114.77 148.83 120.98C145.63 133.82 142.15 137.78 107.74 133.59C91.5198 131.62 57.5598 126.03 39.7098 123.64C21.8598 121.25 15.3898 117.8 19.0298 91.96C21.1698 76.74 22.6498 59.87 24.9098 51.33C28.5098 37.73 33.3398 37.31 45.1698 38.77H45.1598Z" fill="white" stroke="#222834" stroke-width="2" stroke-miterlimit="10"/>
<path d="M132.883 103.461L119.612 101.679C118.085 101.474 116.68 102.546 116.475 104.073L116.117 106.739C115.912 108.266 116.984 109.67 118.511 109.875L131.782 111.658C133.309 111.863 134.713 110.791 134.918 109.264L135.276 106.598C135.482 105.071 134.41 103.667 132.883 103.461Z" fill="#222834" stroke="#222834" stroke-width="2" stroke-miterlimit="10"/>
<path d="M87.6401 50.94C70.1401 48.54 52.8801 46.25 44.3701 45.2C42.7601 45 41.0701 44.81 39.5401 44.73C37.5501 44.62 35.8301 44.69 34.9101 45.16C33.6301 45.82 32.3301 48.53 31.1501 53C29.7401 58.34 28.5901 67.76 27.3701 77.74C26.7601 82.72 26.1301 87.87 25.4301 92.88C23.9101 103.7 24.1501 110 26.1901 112.69C28.0401 115.12 33.0601 116.24 40.5701 117.25C48.6001 118.33 59.5801 120 71.2101 121.78C73.9201 122.19 76.6501 122.61 79.3501 123.02C93.7601 90.8 71.5001 77.49 87.6501 50.96L87.6401 50.94Z" fill="url(#paint2_linear_411_8229)"/>
<path d="M102.757 99.4098L37.0962 90.5905C35.5691 90.3853 34.1648 91.4571 33.9596 92.9842L33.6015 95.6503C33.3964 97.1774 34.4681 98.5817 35.9953 98.7869L101.656 107.606C103.183 107.811 104.587 106.74 104.792 105.212L105.15 102.546C105.355 101.019 104.284 99.6149 102.757 99.4098Z" fill="#222834" stroke="#222834" stroke-width="2" stroke-miterlimit="10"/>
<path d="M50.7499 54.51L45.6799 53.72C43.4699 53.38 41.3999 54.89 41.0599 57.1L40.5399 60.43C40.5199 60.57 40.6099 60.7 40.7499 60.72L48.4399 61.91C48.5799 61.93 48.7099 61.84 48.7299 61.7L49.4199 57.28C49.5699 56.28 50.0999 55.44 50.8299 54.85C50.9599 54.74 50.9199 54.53 50.7499 54.51Z" fill="#374DFB"/>
<path d="M53.6199 55.97C52.5599 55.81 51.5599 56.53 51.3999 57.59L49.6399 68.92C49.4799 69.98 50.1999 70.98 51.2599 71.14C52.3199 71.3 53.3199 70.58 53.4799 69.52L55.2399 58.19C55.3999 57.13 54.6799 56.13 53.6199 55.97Z" fill="#374DFB"/>
<path d="M61.8599 56.24L56.7899 55.45C56.6199 55.42 56.5099 55.61 56.6099 55.75C57.1199 56.53 57.3699 57.5 57.2099 58.49L56.5199 62.91C56.4999 63.05 56.5899 63.18 56.7299 63.2L64.4199 64.39C64.5599 64.41 64.6899 64.32 64.7099 64.18L65.2299 60.85C65.5699 58.64 64.0599 56.57 61.8499 56.23L61.8599 56.24Z" fill="#374DFB"/>
<path d="M47.6698 68.61L48.3598 64.19C48.3798 64.05 48.2898 63.92 48.1498 63.9L40.4598 62.71C40.3198 62.69 40.1898 62.78 40.1698 62.92L39.6498 66.25C39.3098 68.46 40.8198 70.53 43.0298 70.87L48.0998 71.66C48.2698 71.69 48.3798 71.5 48.2798 71.36C47.7698 70.58 47.5198 69.61 47.6798 68.62L47.6698 68.61Z" fill="#374DFB"/>
<path d="M64.1296 66.38L56.4396 65.19C56.2996 65.17 56.1696 65.26 56.1496 65.4L55.4596 69.82C55.3096 70.82 54.7796 71.66 54.0496 72.25C53.9196 72.36 53.9596 72.57 54.1296 72.59L59.1996 73.38C61.4096 73.72 63.4796 72.21 63.8196 70L64.3396 66.67C64.3596 66.53 64.2696 66.4 64.1296 66.38Z" fill="#374DFB"/>
<path d="M142.11 57.7C129.54 70.27 110.58 71.68 99.76 60.86C98.94 60.04 95.77 56.95 94.54 55.64C85.06 45.58 91.31 30.12 102.92 18.51C113.13 8.29999 131.31 1.91999 140.05 10.13C142.4 12.34 143.24 13.32 145.27 15.35C156.09 26.17 154.68 45.13 142.11 57.7Z" fill="white" stroke="#222834" stroke-width="2" stroke-miterlimit="10"/>
<path d="M92.5399 40.94C92.1299 48.39 94.4999 55.59 99.7599 60.85C110.4 71.49 128.89 70.3 141.45 58.32C141.86 50.87 139.49 43.67 134.23 38.41C123.59 27.77 105.1 28.96 92.5399 40.94Z" fill="#222834" stroke="#222834" stroke-width="2" stroke-miterlimit="10"/>
<path d="M136.897 52.47C149.464 39.9029 150.879 20.9428 140.058 10.1213C129.236 -0.700081 110.276 0.715038 97.7093 13.2821C85.1422 25.8492 83.7271 44.8093 94.5485 55.6307C105.37 66.4522 124.33 65.037 136.897 52.47Z" fill="white" stroke="#222834" stroke-width="2" stroke-miterlimit="10"/>
<path d="M132.76 48.34C122.84 58.26 107.24 59.98 99.34 50.83C91.44 41.68 92.39 27.46 101.83 17.41C111.43 7.18998 127.09 5.99998 135.25 14.92C143.41 23.84 142.68 38.42 132.76 48.34Z" fill="url(#paint3_linear_411_8229)"/>
<path d="M116.51 9.32998C123.52 8.04998 130.61 9.84999 135.25 14.93C143.18 23.6 142.68 38.43 132.76 48.35C122.84 58.27 107.24 59.99 99.34 50.84C91.44 41.69 92.39 27.47 101.83 17.42C103.64 15.5 105.66 13.89 107.81 12.61" stroke="#222834" stroke-width="2" stroke-linecap="round" stroke-linejoin="round"/>
</g>
<defs>
<linearGradient id="paint0_linear_411_8229" x1="11.1201" y1="152.27" x2="148.88" y2="152.27" gradientUnits="userSpaceOnUse">
<stop stop-color="white"/>
<stop offset="1" stop-color="#B8D4FF"/>
</linearGradient>
<linearGradient id="paint1_linear_411_8229" x1="-17.6802" y1="43.4599" x2="42.0798" y2="43.4599" gradientUnits="userSpaceOnUse">
<stop stop-color="#B8D4FF"/>
<stop offset="1" stop-color="white"/>
</linearGradient>
<linearGradient id="paint2_linear_411_8229" x1="35.0001" y1="200.91" x2="66.4801" y2="32.21" gradientUnits="userSpaceOnUse">
<stop stop-color="#B8D4FF"/>
<stop offset="1" stop-color="white"/>
</linearGradient>
<linearGradient id="paint3_linear_411_8229" x1="65.18" y1="32.88" x2="139.61" y2="32.88" gradientUnits="userSpaceOnUse">
<stop stop-color="#B8D4FF"/>
<stop offset="1" stop-color="white"/>
</linearGradient>
<clipPath id="clip0_411_8229">
<rect width="160" height="160" fill="white"/>
</clipPath>
</defs>
</svg>
