<svg width="160" height="160" viewBox="0 0 160 160" fill="none" xmlns="http://www.w3.org/2000/svg">
<g clip-path="url(#clip0_411_8214)">
<path d="M160 0H0V160H160V0Z" fill="white"/>
<path d="M80.0002 159.76C100.175 159.76 116.53 157.056 116.53 153.72C116.53 150.384 100.175 147.68 80.0002 147.68C59.8253 147.68 43.4702 150.384 43.4702 153.72C43.4702 157.056 59.8253 159.76 80.0002 159.76Z" fill="url(#paint0_linear_411_8214)"/>
<path d="M55.2999 107.95C54.5099 91.36 54.5699 70.17 55.5899 53.48C56.3999 40.2 55.8799 20.55 71.7099 17.58C82.5799 15.54 100.19 15.58 110.13 17.08C123.59 19.11 128.61 29.58 128.26 56.11C128.06 71.26 127.87 85.06 128 101.78C128.24 131.37 113.48 136.66 101.43 137.35C64.5399 139.47 56.3599 130.2 55.2999 107.96V107.95Z" fill="#222834" stroke="#222834" stroke-width="2" stroke-miterlimit="10"/>
<path d="M44.8199 107.95C44.0299 91.36 44.0899 70.17 45.1099 53.48C45.9199 40.2 45.3999 20.55 61.2299 17.58C72.0999 15.54 89.7099 15.58 99.6499 17.08C113.11 19.11 118.13 29.58 117.78 56.11C117.58 71.26 117.39 85.06 117.52 101.78C117.76 131.37 103 136.66 90.9499 137.35C54.0599 139.47 45.8799 130.2 44.8199 107.96V107.95Z" fill="white" stroke="#222834" stroke-width="2" stroke-miterlimit="10"/>
<path d="M112.79 56.05C113.18 26.62 106.45 23.17 98.9201 22.03C94.5601 21.37 88.4301 21 82.0701 21C75.0501 21 67.7401 21.46 62.1701 22.5C52.3701 24.34 51.0401 35.6 50.3101 50.13C50.2501 51.39 50.1901 52.61 50.1101 53.79C49.1401 69.8 49.0201 90.96 49.8201 107.71C50.2901 117.49 52.1501 123.15 56.0501 126.66C61.5201 131.59 72.5201 133.39 90.6801 132.35C100.97 131.76 112.74 127.75 112.54 101.81C112.41 85.65 112.59 72.07 112.78 57.69L112.8 56.04L112.79 56.05Z" fill="url(#paint1_linear_411_8214)"/>
<path d="M112.25 41.68C102.27 44.91 100.04 58.47 98.21 69.65C97.43 74.43 95.79 84.36 93.73 84.36C92.4 84.36 91.32 82.19 89.83 78.89C87.78 74.35 84.98 68.12 77.76 68.12C68.71 68.12 67.49 78.64 66.51 87.09C65.66 94.39 64.74 100.42 61.97 100.42C59.82 100.42 59.14 99.62 57.43 95.08C56.13 91.64 54.29 86.8 49.29 84.97C49.29 88.89 49.35 92.78 49.43 96.58C49.59 96.99 49.76 97.42 49.94 97.91C51.52 102.1 53.91 108.42 61.97 108.42C72.09 108.42 73.46 96.62 74.46 88.01C74.94 83.85 75.84 76.12 77.76 76.12C79.5 76.12 80.52 77.71 82.53 82.17C84.47 86.47 87.12 92.36 93.72 92.36C102.57 92.36 104.36 81.47 106.09 70.94C107.68 61.28 109.21 53.73 112.76 50.57C112.69 47.21 112.51 44.27 112.24 41.67L112.25 41.68Z" fill="#374DFB"/>
<path d="M54.05 3.31H47.13C32.13 3.31 19.98 16.6 19.98 33C19.98 49.4 32.14 62.69 47.13 62.69H54.05V3.31Z" fill="#222834" stroke="#222834" stroke-width="2" stroke-linecap="round" stroke-linejoin="round"/>
<path d="M53.5499 62.68C68.5444 62.68 80.6999 49.3873 80.6999 32.99C80.6999 16.5927 68.5444 3.29999 53.5499 3.29999C38.5554 3.29999 26.3999 16.5927 26.3999 32.99C26.3999 49.3873 38.5554 62.68 53.5499 62.68Z" fill="white" stroke="#222834" stroke-width="2" stroke-miterlimit="10"/>
<path d="M53.5497 57.11C65.7331 57.11 75.6097 46.3111 75.6097 32.99C75.6097 19.6689 65.7331 8.87 53.5497 8.87C41.3663 8.87 31.4897 19.6689 31.4897 32.99C31.4897 46.3111 41.3663 57.11 53.5497 57.11Z" fill="url(#paint2_linear_411_8214)"/>
<path d="M61.32 21.11C59.49 17.43 55.97 17.55 52 18.96L50.98 16.54C50.62 15.69 49.63 15.3 48.79 15.69C47.99 16.06 47.63 16.99 47.97 17.8L48.98 20.19C48.2 20.55 47.41 20.94 46.63 21.32L45.65 19C45.29 18.15 44.3 17.76 43.46 18.15C42.66 18.52 42.3 19.45 42.64 20.26L43.7 22.79C43.06 23.1 42.44 23.41 41.83 23.69V23.67L39.3 24.84C38.42 25.25 38.01 26.27 38.36 27.18C38.74 28.16 39.88 28.63 40.84 28.19C41.08 28.08 41.24 28.01 41.23 28.03C42.43 27.47 43.12 28.05 43.48 28.66L45.83 34.72C45.91 34.68 46.02 34.64 46.15 34.6C46.05 34.65 45.95 34.69 45.84 34.75L49.13 43.24C49.24 43.68 49.27 44.44 48.43 44.83C48.45 44.83 48.16 44.97 47.79 45.15C46.91 45.56 46.43 46.52 46.64 47.47C46.92 48.76 48.33 49.45 49.52 48.9L51.05 48.19C51.77 47.86 52.48 47.54 53.17 47.23L53.88 49.09C54.21 49.97 55.23 50.39 56.09 49.99C56.86 49.63 57.23 48.74 56.93 47.94L56.16 45.91C56.98 45.55 57.77 45.19 58.54 44.84L59.21 46.62C59.54 47.5 60.56 47.92 61.42 47.52C62.19 47.16 62.56 46.26 62.26 45.47L61.47 43.4C66.33 40.78 69.28 37.79 67.73 32.47C66.48 28.19 64 27.18 60.88 27.74C62.23 25.99 62.65 23.8 61.31 21.11H61.32ZM61.64 34.54C63.2 38.56 56.73 41.03 54.72 41.96L51.95 34.83C53.96 33.9 60.01 30.35 61.64 34.54ZM56.36 25.12C57.78 28.78 52.36 30.79 50.69 31.56L48.18 25.09C49.85 24.31 54.88 21.3 56.36 25.11V25.12Z" fill="#222834"/>
</g>
<defs>
<linearGradient id="paint0_linear_411_8214" x1="43.4702" y1="153.72" x2="116.53" y2="153.72" gradientUnits="userSpaceOnUse">
<stop stop-color="white"/>
<stop offset="1" stop-color="#B8D4FF"/>
</linearGradient>
<linearGradient id="paint1_linear_411_8214" x1="81.0401" y1="206.56" x2="81.0401" y2="36.33" gradientUnits="userSpaceOnUse">
<stop stop-color="#B8D4FF"/>
<stop offset="1" stop-color="white"/>
</linearGradient>
<linearGradient id="paint2_linear_411_8214" x1="-9.07026" y1="32.99" x2="73.7897" y2="32.99" gradientUnits="userSpaceOnUse">
<stop stop-color="#B8D4FF"/>
<stop offset="1" stop-color="white"/>
</linearGradient>
<clipPath id="clip0_411_8214">
<rect width="160" height="160" fill="white"/>
</clipPath>
</defs>
</svg>
