<svg width="33" height="32" viewBox="0 0 33 32" fill="none" xmlns="http://www.w3.org/2000/svg">
<g clip-path="url(#clip0_1912_4835)">
<path d="M32.8828 16C32.8828 7.16352 25.7193 0 16.8828 0C8.04633 0 0.882812 7.16352 0.882812 16C0.882812 23.5034 6.04889 29.7997 13.0179 31.529V20.8896H9.71865V16H13.0179V13.8931C13.0179 8.44736 15.4825 5.9232 20.8291 5.9232C21.8428 5.9232 23.5919 6.12224 24.3075 6.32064V10.7526C23.9299 10.713 23.2739 10.6931 22.4591 10.6931C19.8358 10.6931 18.822 11.687 18.822 14.2707V16H24.0483L23.1503 20.8896H18.822V31.8829C26.7446 30.9261 32.8835 24.1805 32.8835 16H32.8828Z" fill="#818999"/>
</g>
<defs>
<clipPath id="clip0_1912_4835">
<rect width="32" height="32" fill="white" transform="translate(0.882812)"/>
</clipPath>
</defs>
</svg>
