<svg width="19" height="18" viewBox="0 0 19 18" fill="none" xmlns="http://www.w3.org/2000/svg">
<path fill-rule="evenodd" clip-rule="evenodd" d="M9.36386 2.0984C7.41394 0.394327 4.53022 0.0456132 2.2908 1.95902C-0.131522 4.02871 -0.483464 7.51438 1.43205 9.97926C2.15916 10.9149 3.57832 12.3205 4.94216 13.6078C6.32197 14.9102 7.6986 16.1409 8.37748 16.7421C8.38173 16.7459 8.38605 16.7497 8.39045 16.7536C8.45427 16.8102 8.53372 16.8806 8.60988 16.938C8.70108 17.0066 8.832 17.0919 9.00684 17.1441C9.23926 17.2134 9.4891 17.2134 9.72153 17.1441C9.89636 17.0919 10.0273 17.0066 10.1185 16.938C10.1946 16.8806 10.2741 16.8102 10.3379 16.7536C10.3423 16.7497 10.3466 16.7459 10.3509 16.7421C11.0298 16.1409 12.4064 14.9102 13.7862 13.6078C15.15 12.3205 16.5692 10.9149 17.2963 9.97926C19.2045 7.52385 18.9069 4.01129 16.4289 1.95171C14.1645 0.0696925 11.3116 0.393679 9.36386 2.0984ZM8.73091 3.82243C7.31003 2.16129 5.05146 1.79244 3.37347 3.22615C1.62071 4.72375 1.38485 7.2024 2.74806 8.95656C3.38397 9.77485 4.7088 11.0957 6.08617 12.3958C7.37204 13.6095 8.65828 14.763 9.36418 15.3895C10.0701 14.763 11.3563 13.6095 12.6422 12.3958C14.0196 11.0957 15.3444 9.77485 15.9803 8.95656C17.3509 7.19293 17.1324 4.70364 15.3636 3.23346C13.6411 1.80185 11.4121 2.16864 9.99745 3.82243C9.83913 4.00753 9.60775 4.11409 9.36418 4.11409C9.12061 4.11409 8.88924 4.00753 8.73091 3.82243Z" fill="#5D677A"/>
</svg>
