<svg width="32" height="32" viewBox="0 0 32 32" fill="none" xmlns="http://www.w3.org/2000/svg">
<rect x="1" y="1" width="10" height="10" stroke="white" stroke-width="2"/>
<rect x="4" y="4" width="4" height="4" fill="white"/>
<rect x="24" y="4" width="4" height="4" fill="white"/>
<rect x="4" y="24" width="4" height="4" fill="white"/>
<rect x="1" y="21" width="10" height="10" stroke="white" stroke-width="2"/>
<rect x="21" y="1" width="10" height="10" stroke="white" stroke-width="2"/>
<rect y="15" width="32" height="2" fill="white"/>
<rect x="17" width="12" height="2" transform="rotate(90 17 0)" fill="white"/>
<rect x="17" y="20" width="12" height="2" transform="rotate(90 17 20)" fill="white"/>
<path d="M26 22.0016C27.0872 22.0016 28.0047 22.6866 28.0047 23.5004H30C30 21.5711 28.2058 20 26 20C23.7942 20 22 21.5711 22 23.5004C22 25.7565 23.7565 26.3284 25.0353 26.7337C25.2427 26.7997 25.4595 26.8688 25.6638 26.9442C25.868 27.0196 26.1383 27.1045 26.3645 27.1767C27.8005 27.6386 28.0016 27.8052 28.0016 28.4996C28.0016 29.3134 27.0841 30.0016 25.9969 30.0016C24.9097 30.0016 23.9953 29.3134 23.9953 28.4996H22C22 30.4321 23.7942 32 26 32C28.2058 32 30 30.4289 30 28.4996C30 26.2467 28.2529 25.6716 26.9804 25.2726C26.7667 25.2035 26.5499 25.1343 26.3331 25.0589C26.1163 24.9835 25.868 24.9018 25.6481 24.8295C24.2121 24.3676 23.9984 24.2011 23.9984 23.5004C23.9984 22.6866 24.9159 22.0016 26 22.0016Z" fill="white"/>
</svg>
