<svg width="160" height="160" viewBox="0 0 160 160" fill="none" xmlns="http://www.w3.org/2000/svg">
<g clip-path="url(#clip0_411_8146)">
<path d="M160 0H0V160H160V0Z" fill="white"/>
<path d="M80 159.76C93.4039 159.76 104.27 157.983 104.27 155.79C104.27 153.597 93.4039 151.82 80 151.82C66.596 151.82 55.73 153.597 55.73 155.79C55.73 157.983 66.596 159.76 80 159.76Z" fill="url(#paint0_linear_411_8146)"/>
<path d="M136.89 33.9799C136.62 32.0799 135.14 30.5999 133.25 30.2699C107.17 25.6299 103.03 7.75989 79.2701 7.75989C55.5101 7.75989 51.3701 25.6299 25.2901 30.2699C23.4001 30.6099 21.9201 32.0899 21.6501 33.9799C17.3501 63.9999 16.8301 89.5299 33.8301 110.7C45.6701 125.45 59.6401 135.76 75.7301 143.45C77.9701 144.52 80.5701 144.52 82.8101 143.45C98.8901 135.76 112.87 125.45 124.71 110.7C141.71 89.5299 141.19 63.9999 136.89 33.9799Z" fill="#222834" stroke="#222834" stroke-width="2" stroke-miterlimit="10"/>
<path d="M136.89 27.6599C136.62 25.7599 135.14 24.2799 133.25 23.9499C107.17 19.3099 103.03 1.43994 79.2701 1.43994C55.5101 1.43994 51.3701 19.3099 25.2901 23.9499C23.4001 24.2899 21.9201 25.7699 21.6501 27.6599C17.3501 57.6799 16.8301 83.2099 33.8301 104.38C45.6701 119.13 59.6401 129.44 75.7301 137.13C77.9701 138.2 80.5701 138.2 82.8101 137.13C98.8901 129.44 112.87 119.13 124.71 104.38C141.71 83.2099 141.19 57.6799 136.89 27.6599Z" fill="white" stroke="#222834" stroke-width="2" stroke-linecap="round" stroke-linejoin="round"/>
<path d="M130.19 32.65C130.03 31.45 129.14 30.47 127.96 30.2C116.13 27.48 107.71 23.96 102 18.15C94.3103 10.33 83.1603 9.04998 80.0903 8.84998V131.44C93.8503 125.54 110.44 114.09 119.79 100.44C132.77 81.48 134.06 61.52 130.19 32.65Z" fill="url(#paint1_linear_411_8146)"/>
<path d="M47.5003 109.27C58.0703 119.62 69.3803 127.01 80.0903 131.43C134.4 107.07 138.48 59.1799 128.95 30.6099C116.38 27.8199 108.28 22.1699 101.68 17.5599C94.3803 12.4699 89.1103 8.78992 79.2703 8.78992C69.4303 8.78992 64.1603 12.4699 56.8603 17.5599C50.2603 22.1599 42.1603 27.8099 29.5903 30.6099" stroke="#222834" stroke-width="2" stroke-linecap="round" stroke-linejoin="round"/>
<path d="M77.96 100.21C99.7752 100.21 117.46 84.0071 117.46 64.02C117.46 44.0328 99.7752 27.83 77.96 27.83C56.1447 27.83 38.46 44.0328 38.46 64.02C38.46 84.0071 56.1447 100.21 77.96 100.21Z" fill="#374DFB"/>
<path d="M72.5799 37.1899L70.3798 37.6499L68.7899 36.1599C68.4799 35.8699 67.9499 36.0599 67.8899 36.4799L67.6099 38.6399L65.6199 39.6799C65.2299 39.8799 65.2399 40.4299 65.6399 40.5999L67.6599 41.4799L68.0198 43.6099C68.0898 44.0299 68.6299 44.1799 68.9299 43.8599L70.4599 42.2499L72.6698 42.5299C73.0998 42.5799 73.4299 42.1299 73.2199 41.7599L72.1499 39.8899L73.1599 37.9299C73.3599 37.5399 73.0198 37.1199 72.5898 37.2099L72.5799 37.1899Z" fill="white"/>
<path d="M55.9401 76.09C56.3701 76.14 56.7001 75.69 56.4901 75.32L55.4201 73.45L56.4301 71.49C56.6301 71.1 56.2901 70.68 55.8601 70.77L53.6601 71.22L52.0701 69.73C51.7601 69.44 51.2301 69.63 51.1701 70.05L50.8901 72.21L48.9001 73.25C48.5101 73.45 48.5201 74 48.9201 74.17L50.9401 75.05L51.3001 77.18C51.3701 77.6 51.9101 77.75 52.2101 77.43L53.7401 75.82L55.9501 76.1L55.9401 76.09Z" fill="white"/>
<path d="M107.01 52.4899L104.81 52.9499L103.22 51.4599C102.91 51.1699 102.38 51.3599 102.32 51.7799L102.04 53.9399L100.05 54.9799C99.66 55.1799 99.67 55.7299 100.07 55.9L102.09 56.7799L102.45 58.9099C102.52 59.3299 103.06 59.4799 103.36 59.1599L104.89 57.5499L107.1 57.83C107.53 57.88 107.86 57.4299 107.65 57.0599L106.58 55.1899L107.59 53.2299C107.79 52.8399 107.45 52.4199 107.02 52.5099L107.01 52.4899Z" fill="white"/>
<path d="M86.72 36.4599L84.52 36.9199L82.93 35.4299C82.62 35.1399 82.09 35.3299 82.03 35.7499L81.75 37.9099L79.76 38.9499C79.37 39.1499 79.38 39.6999 79.78 39.8699L81.8 40.7499L82.16 42.8799C82.23 43.2999 82.77 43.4499 83.07 43.1299L84.6 41.5199L86.81 41.7999C87.24 41.8499 87.57 41.3999 87.36 41.0299L86.29 39.1599L87.3 37.1999C87.5 36.8099 87.16 36.3899 86.73 36.4799L86.72 36.4599Z" fill="white"/>
<path d="M94.1699 45.7599L94.5299 47.8899C94.5999 48.3099 95.1399 48.4599 95.4399 48.1399L96.9699 46.5299L99.1799 46.8099C99.6099 46.86 99.9399 46.4099 99.7299 46.0399L98.6599 44.1699L99.6699 42.2099C99.8699 41.8199 99.5299 41.3999 99.0999 41.4899L96.8999 41.9499L95.3099 40.4599C94.9999 40.1699 94.4699 40.3599 94.4099 40.7799L94.1299 42.9399L92.1399 43.9799C91.7499 44.1799 91.7599 44.7299 92.1599 44.9L94.1799 45.7799L94.1699 45.7599Z" fill="white"/>
<path d="M107.28 65.5899L105.08 66.0399L103.49 64.5499C103.18 64.2599 102.65 64.4499 102.59 64.8699L102.31 67.0299L100.32 68.0699C99.93 68.2699 99.94 68.8199 100.34 68.9899L102.36 69.8699L102.72 71.9999C102.79 72.4199 103.33 72.5699 103.63 72.2499L105.16 70.6399L107.37 70.9199C107.8 70.9699 108.13 70.5199 107.92 70.1499L106.85 68.2799L107.86 66.3199C108.06 65.9299 107.72 65.5099 107.29 65.5999L107.28 65.5899Z" fill="white"/>
<path d="M101.44 77.6799L99.2397 78.1399L97.6497 76.6499C97.3397 76.3599 96.8097 76.5499 96.7497 76.9699L96.4697 79.1299L94.4797 80.1699C94.0897 80.3699 94.0997 80.9199 94.4997 81.0899L96.5197 81.9699L96.8797 84.0999C96.9497 84.5199 97.4897 84.6699 97.7897 84.3499L99.3197 82.7399L101.53 83.0199C101.96 83.0699 102.29 82.6199 102.08 82.2499L101.01 80.3799L102.02 78.4199C102.22 78.0299 101.88 77.6099 101.45 77.6999L101.44 77.6799Z" fill="white"/>
<path d="M75.8001 86.6699L73.6001 87.1299L72.0101 85.6399C71.7001 85.3499 71.1701 85.5399 71.1101 85.9599L70.8301 88.1199L68.8401 89.1599C68.4501 89.3599 68.4601 89.9099 68.8601 90.0799L70.8801 90.9599L71.2401 93.0899C71.3101 93.5099 71.8501 93.6599 72.1501 93.3399L73.6801 91.7299L75.8901 92.0099C76.3201 92.0599 76.6501 91.6099 76.4401 91.2399L75.3701 89.3699L76.3801 87.4099C76.5801 87.0199 76.2401 86.5999 75.8101 86.6899L75.8001 86.6699Z" fill="white"/>
<path d="M63.5799 81.12L61.3799 81.58L59.7899 80.09C59.4799 79.8 58.9499 79.99 58.8899 80.41L58.6099 82.57L56.6199 83.61C56.2299 83.81 56.2399 84.36 56.6399 84.53L58.6599 85.41L59.0199 87.54C59.0899 87.96 59.6299 88.11 59.9299 87.79L61.4599 86.18L63.6699 86.46C64.0999 86.51 64.4299 86.06 64.2199 85.69L63.1499 83.82L64.1599 81.86C64.3599 81.47 64.0199 81.05 63.5899 81.14L63.5799 81.12Z" fill="white"/>
<path d="M49.9999 62.0899L50.3599 64.2199C50.4299 64.6399 50.9699 64.7899 51.2699 64.4699L52.7999 62.8599L55.0099 63.1399C55.4399 63.1899 55.7699 62.7399 55.56 62.3699L54.49 60.4999L55.4999 58.5399C55.6999 58.1499 55.3599 57.7299 54.9299 57.8199L52.7299 58.2799L51.1399 56.7899C50.8299 56.4999 50.3 56.6899 50.24 57.1099L49.9599 59.2699L47.97 60.3099C47.58 60.5099 47.59 61.0599 47.99 61.2299L50.0099 62.1099L49.9999 62.0899Z" fill="white"/>
<path d="M56.2299 50.14L56.5899 52.27C56.6599 52.69 57.1999 52.84 57.4999 52.52L59.0299 50.91L61.2399 51.19C61.6699 51.24 61.9999 50.79 61.7899 50.42L60.7199 48.55L61.7299 46.59C61.9299 46.2 61.5899 45.78 61.1599 45.87L58.9599 46.33L57.3699 44.84C57.0599 44.55 56.5299 44.74 56.4699 45.16L56.1899 47.32L54.1999 48.36C53.8099 48.56 53.8199 49.11 54.2199 49.28L56.2399 50.16L56.2299 50.14Z" fill="white"/>
<path d="M89.7097 85.15L87.5097 85.61L85.9197 84.12C85.6097 83.83 85.0797 84.02 85.0197 84.44L84.7397 86.6L82.7497 87.64C82.3597 87.84 82.3697 88.39 82.7697 88.56L84.7897 89.44L85.1497 91.57C85.2197 91.99 85.7597 92.14 86.0597 91.82L87.5897 90.21L89.7997 90.49C90.2297 90.54 90.5597 90.09 90.3497 89.72L89.2797 87.85L90.2897 85.89C90.4897 85.5 90.1497 85.08 89.7197 85.17L89.7097 85.15Z" fill="white"/>
</g>
<defs>
<linearGradient id="paint0_linear_411_8146" x1="55.73" y1="155.79" x2="104.27" y2="155.79" gradientUnits="userSpaceOnUse">
<stop stop-color="white"/>
<stop offset="1" stop-color="#B8D4FF"/>
</linearGradient>
<linearGradient id="paint1_linear_411_8146" x1="29.8403" y1="150.08" x2="134.21" y2="8.00997" gradientUnits="userSpaceOnUse">
<stop stop-color="#B8D4FF"/>
<stop offset="1" stop-color="white"/>
</linearGradient>
<clipPath id="clip0_411_8146">
<rect width="160" height="160" fill="white"/>
</clipPath>
</defs>
</svg>
