<svg width="500" height="500" viewBox="0 0 500 500" fill="none" xmlns="http://www.w3.org/2000/svg">
<rect width="500" height="500" rx="125.001" fill="black"/>
<path fill-rule="evenodd" clip-rule="evenodd" d="M179.989 206.657C189.594 206.657 197.381 198.871 197.381 189.266C197.381 179.661 189.594 171.875 179.989 171.875C170.384 171.875 162.598 179.661 162.598 189.266C162.598 198.871 170.384 206.657 179.989 206.657ZM320.235 206.657C329.84 206.657 337.627 198.871 337.627 189.266C337.627 179.661 329.84 171.875 320.235 171.875C310.63 171.875 302.844 179.661 302.844 189.266C302.844 198.871 310.63 206.657 320.235 206.657ZM250.687 310.957C200.279 310.957 151.936 290.933 116.293 255.29L96.625 274.957C137.485 315.816 192.903 338.771 250.687 338.771C308.472 338.771 363.89 315.816 404.749 274.957L385.082 255.29C349.438 290.933 301.095 310.957 250.687 310.957Z" fill="white"/>
</svg>
