<svg width="160" height="160" viewBox="0 0 160 160" fill="none" xmlns="http://www.w3.org/2000/svg">
<g clip-path="url(#clip0_411_8171)">
<path d="M160 0H0V160H160V0Z" fill="white"/>
<path d="M118.7 139.19C113.55 136.78 111.06 130.89 110.15 128.49C106.2 118.1 109.27 110.12 111.5 104.56C119.63 84.25 84.9702 85.78 79.5902 87.6C47.2702 98.55 57.9502 128.17 62.7702 142.16C64.4402 147 65.4202 153.02 65.1502 158.52" fill="white"/>
<path d="M118.7 139.19C113.55 136.78 111.06 130.89 110.15 128.49C106.2 118.1 109.27 110.12 111.5 104.56C119.63 84.25 84.9702 85.78 79.5902 87.6C47.2702 98.55 57.9502 128.17 62.7702 142.16C64.4402 147 65.4202 153.02 65.1502 158.52" stroke="#222834" stroke-width="2" stroke-linecap="round" stroke-linejoin="round"/>
<path d="M38.1099 84.05C36.7599 100.3 30.5499 109.44 22.2399 108.62C13.9199 107.8 6.49987 97.5 8.73987 79.57C11.6199 56.54 20.1599 49.78 29.6899 53.62C37.5599 56.79 39.4599 67.8 38.1099 84.05Z" fill="#222834" stroke="#222834" stroke-width="2" stroke-linecap="round" stroke-linejoin="round"/>
<path d="M24.4802 124.72C27.0202 129.29 29.5202 134.88 32.8202 139.18C37.2702 144.99 42.3502 149.35 46.8102 149.88C57.9402 151.21 72.2802 144.49 90.4702 132.42C99.7302 126.28 107.27 116.11 111.91 104.07C113.09 101.02 114.84 98.23 117 95.78C123 88.96 133.42 72.03 126.72 51.91C109.64 0.690002 49.5002 8.13 32.4602 34.4C25.0302 45.86 29.3102 53.6 21.9102 68.29C20.7902 70.51 12.4702 81.44 18.5002 106.67C19.7802 112.02 20.9602 118.38 24.4802 124.72Z" fill="white" stroke="#222834" stroke-width="2" stroke-linecap="round" stroke-linejoin="round"/>
<path style="mix-blend-mode:multiply" d="M38.6602 88.51C37.9902 90.8 36.2602 92.49 34.3102 92.13C30.2602 91.38 27.4402 89.44 27.5802 87.5C27.7302 85.35 31.4802 83.87 36.2402 83.85C39.7602 83.83 39.3002 86.34 38.6702 88.52L38.6602 88.51Z" fill="url(#paint0_linear_411_8171)"/>
<path d="M37.6099 72.75C38.8999 86.91 27.7199 98.85 27.3799 103.57C26.9999 108.76 33.8199 109.93 41.1399 107.54C47.9399 105.32 44.4699 100.27 44.4699 100.27" fill="white"/>
<path d="M37.6099 72.75C38.8999 86.91 27.7199 98.85 27.3799 103.57C26.9999 108.76 33.8199 109.93 41.1399 107.54C47.9399 105.32 44.4699 100.27 44.4699 100.27" stroke="#222834" stroke-width="2" stroke-linecap="round" stroke-linejoin="round"/>
<path d="M42.2197 76.45C42.2197 76.45 39.6097 75.69 37.9697 76.13" stroke="#222834" stroke-width="2" stroke-linecap="round" stroke-linejoin="round"/>
<path d="M78.78 90.105C78.9514 87.7253 74.6472 85.4761 69.1661 85.0813C63.6851 84.6865 59.1029 86.2956 58.9315 88.6753C58.7601 91.055 63.0643 93.3042 68.5454 93.699C74.0264 94.0938 78.6086 92.4847 78.78 90.105Z" fill="url(#paint1_linear_411_8171)"/>
<path style="mix-blend-mode:multiply" d="M71.0602 56.1C76.3102 60.28 78.0502 64 76.6202 68.85C75.9902 70.97 77.2802 72.86 78.8102 73.39C85.4801 75.71 83.4301 78.15 77.8801 89.64C72.3302 101.13 47.6502 99.6 44.0002 85.35C43.7902 84.53 42.6002 84.5499 42.4102 85.38C39.2302 99.43 51.5702 101.67 41.2802 108.03C36.9902 110.68 39.1802 119.88 44.8602 121.19C48.4502 122.02 52.0602 121.34 55.1702 120.01C60.9402 117.55 65.0102 126.05 53.9102 132.8C46.3402 137.4 51.0702 151.7 62.8602 147.49C74.4102 143.36 80.1702 139.1 89.2802 133.42C98.3002 127.81 102.66 121.64 107.14 114.1C110.17 109.01 110.68 104.41 114.05 99.92C121.71 89.71 128.26 81.14 128.84 66.17C129.78 41.82 108.24 22.52 98.6301 19.35C76.8102 12.14 56.3502 44.37 71.0602 56.08V56.1Z" fill="url(#paint2_linear_411_8171)"/>
<path d="M28.6499 120.3C31.6299 121.96 42.9599 122.97 55.1599 120.03" stroke="#222834" stroke-width="2" stroke-linecap="round" stroke-linejoin="round"/>
<path d="M34.5801 127.91C36.4801 128.37 39.2901 128.45 42.3901 128.07" stroke="#222834" stroke-width="2" stroke-linecap="round" stroke-linejoin="round"/>
<path d="M33.1097 81.97C34.993 81.97 36.5197 80.4433 36.5197 78.56C36.5197 76.6767 34.993 75.15 33.1097 75.15C31.2264 75.15 29.6997 76.6767 29.6997 78.56C29.6997 80.4433 31.2264 81.97 33.1097 81.97Z" fill="#222834" stroke="#222834" stroke-width="2" stroke-miterlimit="10"/>
<path d="M19.1998 73.34C12.3298 92.25 20.3298 98.9401 30.7498 93.1601C36.8098 89.8001 38.0698 77.4001 37.6098 72.7601C34.1198 70.4501 24.1898 66.74 15.5898 72.54" stroke="#222834" stroke-width="2" stroke-linecap="round" stroke-linejoin="round"/>
<path d="M66.6497 81.97C68.533 81.97 70.0597 80.4433 70.0597 78.56C70.0597 76.6767 68.533 75.15 66.6497 75.15C64.7665 75.15 63.2397 76.6767 63.2397 78.56C63.2397 80.4433 64.7665 81.97 66.6497 81.97Z" fill="#222834" stroke="#222834" stroke-width="2" stroke-miterlimit="10"/>
<path d="M87.9498 78.04C57.9098 60.29 43.1098 72.78 43.1098 72.78C43.1098 72.78 38.8498 92.8 56.3298 96.28C69.4198 98.89 78.7398 96.22 83.3498 75.8" stroke="#222834" stroke-width="2" stroke-linecap="round" stroke-linejoin="round"/>
<path d="M131.59 33.52C131.59 33.52 133.69 31.6 138.39 31.86C138.77 31.88 138.99 31.45 138.77 31.14C136.1 27.33 130.9 25.5 126.57 25.86C127.28 24.18 127.38 21.2 126.46 19.24C126.28 18.86 125.77 18.89 125.62 19.28C125.11 20.67 123.96 21.64 122.31 22C119.83 1.00002 78.5298 -6.20998 60.3498 6.97002C43.7198 19.03 26.2298 25.83 18.0698 20.31C6.19982 60.8 65.7598 70.41 94.5798 48.29C94.7998 56.15 100.68 91.84 123.49 90.22C136.11 89.33 155.29 58.39 131.58 33.52H131.59Z" fill="#222834"/>
<path d="M32.4498 11.92C27.4298 18.12 31.2798 26.78 36.5598 29.28C45.4798 33.5 51.0298 30.29 52.7698 26.07C54.5098 21.85 52.2298 16.18 45.1998 16.92C39.0298 17.57 35.3098 15.6 32.4598 11.93L32.4498 11.92Z" fill="#222834"/>
<path d="M114.6 78.62C114.62 68.6 113.85 58.64 110.73 49.21C105 31.1 88.9201 16.78 69.8301 14.45C59.0301 12.99 47.5801 15.39 39.2401 22.93C38.7201 23.43 37.8801 23.4 37.3901 22.86C36.9901 22.41 36.9601 21.76 37.2801 21.28C43.0201 12.64 53.2601 7.24004 63.4701 5.73004C83.2301 2.44004 104.39 11.5 116.75 27.36C127.04 40.19 131.12 57.01 130.25 73.18C130.02 75.32 129.85 77.76 129.55 79.88C128.05 89.33 114.51 88.15 114.6 78.62Z" fill="white" stroke="#222834" stroke-width="2" stroke-linecap="round" stroke-linejoin="round"/>
<path d="M119.1 78.68C119.13 65.94 117.87 56.45 115.02 47.88C110.82 34.62 101.57 23.24 89.4702 16.37" stroke="#222834" stroke-width="2" stroke-linecap="round" stroke-linejoin="round"/>
<path d="M142.18 90.8701C138.94 109.46 129.06 120.84 114.32 120.7C97.4701 120.54 92.2201 100.81 95.4501 82.2201C98.6901 63.6301 110.05 48.4901 126.04 53.3801C137.94 57.0201 145.42 72.2801 142.19 90.8701H142.18Z" fill="white" stroke="#222834" stroke-width="2" stroke-linecap="round" stroke-linejoin="round"/>
<path d="M143.349 92.8761C146.026 77.4886 140.676 63.7062 131.399 62.0921C122.121 60.478 112.431 71.6434 109.753 87.0309C107.076 102.418 112.426 116.201 121.703 117.815C130.98 119.429 140.671 108.264 143.349 92.8761Z" fill="white" stroke="#222834" stroke-width="2" stroke-linecap="round" stroke-linejoin="round"/>
<path d="M136.14 91.5001C134.63 100.07 129.58 107.52 124.55 106.63C119.52 105.74 116.99 96.8701 118.5 88.3001C120.01 79.7301 125.73 71.4901 130.76 72.3801C135.79 73.2701 137.65 82.9301 136.13 91.5001H136.14Z" fill="#374DFB"/>
<path d="M130.36 62.42L129.84 68.01" stroke="#222834" stroke-width="2" stroke-linecap="round" stroke-linejoin="round"/>
<path d="M124.95 110.97L124.44 116.56" stroke="#222834" stroke-width="2" stroke-linecap="round" stroke-linejoin="round"/>
<path d="M78.2102 121.94L70.4402 125.36L69.2402 122.54C68.9702 121.9 69.1102 121.23 69.5602 121.04L74.5102 118.98C75.6002 118.52 77.0102 119.36 77.7202 120.89L78.2102 121.94Z" fill="#222834" stroke="#222834" stroke-width="2" stroke-linecap="round" stroke-linejoin="round"/>
<path d="M101.66 105.97C101.66 105.97 87.8604 118.37 71.3604 125.07L101.66 105.97Z" fill="white"/>
<path d="M101.66 105.97C101.66 105.97 87.8604 118.37 71.3604 125.07" stroke="#222834" stroke-width="4" stroke-linecap="round" stroke-linejoin="round"/>
</g>
<defs>
<linearGradient id="paint0_linear_411_8171" x1="29.362" y1="81.5848" x2="36.543" y2="91.0151" gradientUnits="userSpaceOnUse">
<stop stop-color="#B8D4FF"/>
<stop offset="1" stop-color="white"/>
</linearGradient>
<linearGradient id="paint1_linear_411_8171" x1="61.7303" y1="80.024" x2="72.8303" y2="94.6192" gradientUnits="userSpaceOnUse">
<stop stop-color="#B8D4FF"/>
<stop offset="1" stop-color="white"/>
</linearGradient>
<linearGradient id="paint2_linear_411_8171" x1="15.5902" y1="34.13" x2="109.95" y2="108.86" gradientUnits="userSpaceOnUse">
<stop stop-color="#B8D4FF"/>
<stop offset="1" stop-color="white"/>
</linearGradient>
<clipPath id="clip0_411_8171">
<rect width="160" height="160" fill="white"/>
</clipPath>
</defs>
</svg>
