<svg width="97" height="24" viewBox="0 0 97 24" fill="none" xmlns="http://www.w3.org/2000/svg">
<g clip-path="url(#clip0_6070_16149)">
<path d="M25.3125 8.40039H35.0625V10.2379H31.2375V20.4754H29.1375V10.2004H25.3125V8.40039ZM34.65 11.7004H36.45V13.3879H36.4875C36.5625 13.1629 36.675 12.9379 36.825 12.7129C36.975 12.4879 37.2 12.2629 37.425 12.1129C37.65 11.9254 37.9125 11.7754 38.175 11.6629C38.4375 11.5504 38.7375 11.4754 39.0375 11.4754C39.2625 11.4754 39.4125 11.4754 39.4875 11.4754C39.5625 11.4754 39.675 11.5129 39.75 11.5129V13.3504C39.6 13.3129 39.4875 13.3129 39.3375 13.2754C39.1875 13.2754 39.075 13.2379 38.925 13.2379C38.5875 13.2379 38.2875 13.3129 38.025 13.4254C37.725 13.5379 37.5 13.7629 37.275 13.9879C37.05 14.2504 36.9 14.5504 36.75 14.9254C36.6375 15.3004 36.5625 15.7129 36.5625 16.2004V20.3629H34.65V11.7004ZM48.6 20.4379H46.725V19.2379H46.6875C46.4625 19.6879 46.0875 20.0254 45.6375 20.2879C45.1875 20.5504 44.7 20.7004 44.2125 20.7004C43.05 20.7004 42.225 20.4379 41.7375 19.8379C41.2125 19.2754 40.9875 18.4129 40.9875 17.2504V11.7004H42.9V17.0629C42.9 17.8129 43.05 18.3754 43.35 18.6754C43.65 18.9754 44.0625 19.1629 44.5875 19.1629C45 19.1629 45.3375 19.0879 45.6 18.9754C45.8625 18.8629 46.0875 18.6754 46.2375 18.4879C46.425 18.3004 46.5375 18.0379 46.6125 17.7379C46.6875 17.4379 46.725 17.1379 46.725 16.8004V11.7379H48.6375V20.4379H48.6ZM51.9 17.6254C51.975 18.1879 52.1625 18.5629 52.5375 18.8254C52.9125 19.0504 53.3625 19.1629 53.8875 19.1629C54.075 19.1629 54.2625 19.1629 54.4875 19.1254C54.7125 19.0879 54.9375 19.0504 55.125 18.9754C55.3125 18.9004 55.5 18.7879 55.6125 18.6379C55.725 18.4879 55.8 18.3004 55.8 18.0379C55.8 17.7754 55.6875 17.5879 55.5375 17.4379C55.35 17.2879 55.1625 17.1754 54.9 17.0629C54.6375 16.9879 54.3375 16.8754 54 16.8004C53.6625 16.7254 53.325 16.6504 52.9875 16.5754C52.6125 16.5004 52.275 16.3879 51.9375 16.2754C51.6 16.1629 51.3 16.0129 51.0375 15.8254C50.775 15.6379 50.55 15.3754 50.4 15.0754C50.25 14.7754 50.175 14.4004 50.175 13.9879C50.175 13.5004 50.2875 13.1254 50.5125 12.7879C50.7375 12.4504 51.0375 12.2254 51.375 12.0004C51.75 11.8129 52.125 11.6629 52.575 11.5879C53.025 11.5129 53.4375 11.4754 53.8125 11.4754C54.2625 11.4754 54.7125 11.5129 55.0875 11.6254C55.5 11.7004 55.875 11.8879 56.2125 12.0754C56.55 12.3004 56.8125 12.5629 57.0375 12.9004C57.2625 13.2379 57.4125 13.6504 57.45 14.1379H55.425C55.35 13.6879 55.125 13.3504 54.7875 13.2004C54.45 13.0504 54.075 12.9754 53.6625 12.9754C53.5125 12.9754 53.3625 12.9754 53.175 13.0129C52.9875 13.0504 52.8 13.0879 52.65 13.1254C52.5 13.2004 52.35 13.2754 52.2375 13.3879C52.125 13.5004 52.05 13.6504 52.05 13.8379C52.05 14.0629 52.125 14.2504 52.3125 14.4004C52.4625 14.5504 52.6875 14.6629 52.95 14.7754C53.2125 14.8504 53.5125 14.9629 53.85 15.0379C54.1875 15.1129 54.525 15.1879 54.9 15.2629C55.2375 15.3379 55.575 15.4504 55.9125 15.5629C56.25 15.6754 56.55 15.8254 56.8125 16.0129C57.075 16.2004 57.3 16.4629 57.45 16.7254C57.6 16.9879 57.7125 17.3629 57.7125 17.8129C57.7125 18.3379 57.6 18.7504 57.3375 19.1254C57.1125 19.5004 56.775 19.7629 56.4375 19.9879C56.0625 20.2129 55.65 20.3629 55.1625 20.4754C54.7125 20.5879 54.2625 20.6254 53.775 20.6254C53.2125 20.6254 52.725 20.5504 52.2375 20.4379C51.7875 20.3254 51.375 20.1379 51.0375 19.8754C50.7 19.6129 50.4375 19.3129 50.2125 18.9379C50.025 18.5629 49.9125 18.1129 49.9125 17.5879L51.9 17.6254ZM58.2375 11.7004H59.7V9.07539H61.6125V11.7004H63.3375V13.1254H61.6125V17.7754C61.6125 17.9629 61.6125 18.1504 61.65 18.3004C61.65 18.4504 61.725 18.5629 61.7625 18.6754C61.8375 18.7879 61.9125 18.8629 62.025 18.9004C62.1375 18.9379 62.325 18.9754 62.55 18.9754C62.7 18.9754 62.8125 18.9754 62.9625 18.9754C63.1125 18.9754 63.225 18.9379 63.375 18.9004V20.4004C63.15 20.4379 62.9625 20.4379 62.7375 20.4754C62.55 20.5129 62.325 20.5129 62.1 20.5129C61.575 20.5129 61.2 20.4754 60.8625 20.3629C60.5625 20.2879 60.3 20.1379 60.15 19.9504C59.9625 19.7629 59.85 19.5379 59.775 19.2379C59.7 18.9754 59.6625 18.6379 59.6625 18.2629V13.1629H58.2L58.2375 11.7004ZM64.725 11.7004H66.5625V12.9004H66.6C66.8625 12.3754 67.2375 12.0379 67.725 11.8129C68.2125 11.5879 68.7375 11.4754 69.3 11.4754C69.975 11.4754 70.575 11.5879 71.1 11.8504C71.625 12.0754 72.0375 12.4129 72.375 12.8629C72.7125 13.2754 72.975 13.8004 73.125 14.3254C73.3125 14.8879 73.3875 15.4879 73.3875 16.1254C73.3875 16.7254 73.3125 17.2879 73.1625 17.8129C73.0125 18.3754 72.7875 18.8629 72.4875 19.2754C72.1875 19.6879 71.775 20.0254 71.325 20.2879C70.8375 20.5504 70.3125 20.6629 69.6375 20.6629C69.375 20.6629 69.075 20.6254 68.8125 20.5879C68.55 20.5504 68.25 20.4379 67.9875 20.3254C67.725 20.2129 67.5 20.0629 67.275 19.8754C67.05 19.6879 66.8625 19.5004 66.7125 19.2754H66.675V23.6254H64.7625V11.7004H64.725ZM71.4375 16.0879C71.4375 15.7129 71.4 15.3004 71.2875 14.9254C71.175 14.5504 71.025 14.2129 70.8375 13.9504C70.65 13.6504 70.3875 13.4254 70.0875 13.2754C69.7875 13.0879 69.45 13.0129 69.0375 13.0129C68.2125 13.0129 67.6125 13.2754 67.2 13.8379C66.7875 14.4004 66.6 15.1504 66.6 16.0879C66.6 16.5379 66.6375 16.9504 66.75 17.3254C66.8625 17.7004 67.0125 18.0379 67.2375 18.3004C67.4625 18.5629 67.6875 18.7879 67.9875 18.9379C68.2875 19.0879 68.625 19.1629 69.0375 19.1629C69.4875 19.1629 69.8625 19.0879 70.1625 18.9004C70.4625 18.7129 70.725 18.4879 70.9125 18.1879C71.1 17.8879 71.25 17.5879 71.325 17.2129C71.4 16.8379 71.4375 16.4629 71.4375 16.0879ZM74.8125 8.40039H76.725V10.2379H74.8125V8.40039ZM74.8125 11.7004H76.725V20.4379H74.8125V11.7004ZM78.45 8.40039H80.3625V20.4379H78.45V8.40039ZM86.2875 20.6629C85.575 20.6629 84.975 20.5504 84.4125 20.3254C83.85 20.1004 83.4 19.7629 83.025 19.3879C82.65 18.9754 82.35 18.4879 82.1625 17.9254C81.975 17.3629 81.8625 16.7254 81.8625 16.0879C81.8625 15.4129 81.975 14.8129 82.1625 14.2504C82.35 13.6879 82.65 13.2004 83.025 12.7879C83.4 12.3754 83.85 12.0754 84.4125 11.8504C84.975 11.6254 85.575 11.5129 86.2875 11.5129C87 11.5129 87.6 11.6254 88.1625 11.8504C88.725 12.0754 89.175 12.4129 89.55 12.7879C89.925 13.2004 90.225 13.6879 90.4125 14.2504C90.6 14.8129 90.7125 15.4129 90.7125 16.0879C90.7125 16.7629 90.6 17.3629 90.4125 17.9254C90.225 18.4879 89.925 18.9754 89.55 19.3879C89.175 19.8004 88.725 20.1004 88.1625 20.3254C87.6 20.5504 87 20.6629 86.2875 20.6629ZM86.2875 19.1629C86.7 19.1629 87.075 19.0879 87.4125 18.9004C87.7125 18.7129 87.975 18.4879 88.2 18.1879C88.3875 17.8879 88.5375 17.5504 88.65 17.2129C88.725 16.8379 88.8 16.4629 88.8 16.0879C88.8 15.7129 88.7625 15.3379 88.65 14.9629C88.575 14.5879 88.3875 14.2504 88.2 13.9879C88.0125 13.6879 87.75 13.4629 87.4125 13.2754C87.1125 13.0879 86.7375 13.0129 86.2875 13.0129C85.875 13.0129 85.5 13.0879 85.1625 13.2754C84.8625 13.4629 84.6 13.6879 84.375 13.9879C84.1875 14.2879 84.0375 14.5879 83.925 14.9629C83.85 15.3379 83.775 15.7129 83.775 16.0879C83.775 16.4629 83.8125 16.8379 83.925 17.2129C84 17.5879 84.1875 17.9254 84.375 18.1879C84.5625 18.4879 84.825 18.7129 85.1625 18.9004C85.5 19.0879 85.875 19.1629 86.2875 19.1629ZM91.2375 11.7004H92.7V9.07539H94.6125V11.7004H96.3375V13.1254H94.6125V17.7754C94.6125 17.9629 94.6125 18.1504 94.65 18.3004C94.65 18.4504 94.725 18.5629 94.7625 18.6754C94.8375 18.7879 94.9125 18.8629 95.025 18.9004C95.1375 18.9379 95.325 18.9754 95.55 18.9754C95.7 18.9754 95.8125 18.9754 95.9625 18.9754C96.1125 18.9754 96.225 18.9379 96.375 18.9004V20.4004C96.15 20.4379 95.9625 20.4379 95.7375 20.4754C95.55 20.5129 95.325 20.5129 95.1 20.5129C94.575 20.5129 94.2 20.4754 93.8625 20.3629C93.5625 20.2879 93.3 20.1379 93.15 19.9504C92.9625 19.7629 92.85 19.5379 92.775 19.2379C92.7 18.9754 92.6625 18.6379 92.6625 18.2629V13.1629H91.2L91.2375 11.7004Z" fill="black"/>
<path d="M23.0625 8.4H14.25L11.55 0L8.8125 8.4L0 8.3625L7.125 13.5375L4.3875 21.9L11.5125 16.725L18.6375 21.9L15.9 13.5375L23.0625 8.4Z" fill="#04DA8D"/>
<path d="M16.5719 15.4496L15.9719 13.5371L11.5469 16.7246L16.5719 15.4496Z" fill="#005128"/>
</g>
<defs>
<clipPath id="clip0_6070_16149">
<rect width="96.375" height="24" fill="white"/>
</clipPath>
</defs>
</svg>
