<svg width="21" height="20" viewBox="0 0 21 20" fill="none" xmlns="http://www.w3.org/2000/svg">
<path fill-rule="evenodd" clip-rule="evenodd" d="M8.28649 3.33268C6.67566 3.33268 5.36983 4.63852 5.36983 6.24935C5.36983 7.86018 6.67566 9.16602 8.28649 9.16602C9.89732 9.16602 11.2032 7.86018 11.2032 6.24935C11.2032 4.63852 9.89732 3.33268 8.28649 3.33268ZM3.70316 6.24935C3.70316 3.71804 5.75519 1.66602 8.28649 1.66602C10.8178 1.66602 12.8698 3.71804 12.8698 6.24935C12.8698 8.78065 10.8178 10.8327 8.28649 10.8327C5.75519 10.8327 3.70316 8.78065 3.70316 6.24935ZM12.9569 2.51829C13.1617 2.10614 13.6619 1.93807 14.074 2.14289C15.5812 2.89187 16.6198 4.44855 16.6198 6.24935C16.6198 8.05015 15.5812 9.60683 14.074 10.3558C13.6619 10.5606 13.1617 10.3926 12.9569 9.98041C12.7521 9.56826 12.9202 9.06811 13.3323 8.86329C14.2947 8.38502 14.9532 7.39332 14.9532 6.24935C14.9532 5.10538 14.2947 4.11368 13.3323 3.63541C12.9202 3.43059 12.7521 2.93044 12.9569 2.51829ZM8.28649 14.166C6.17085 14.166 4.19276 15.2704 2.69177 17.1809C2.40743 17.5428 1.88355 17.6056 1.52165 17.3213C1.15975 17.0369 1.09688 16.5131 1.38122 16.1512C3.12437 13.9326 5.55077 12.4993 8.28649 12.4993C11.0222 12.4993 13.4486 13.9326 15.1918 16.1512C15.4761 16.5131 15.4132 17.0369 15.0513 17.3213C14.6894 17.6056 14.1656 17.5428 13.8812 17.1809C12.3802 15.2704 10.4021 14.166 8.28649 14.166ZM14.6106 13.6278C14.8003 13.2085 15.2941 13.0224 15.7134 13.2121C17.1117 13.8448 18.3482 14.8654 19.3584 16.1512C19.6428 16.5131 19.5799 17.0369 19.218 17.3213C18.8561 17.6056 18.3322 17.5428 18.0479 17.1809C17.179 16.0749 16.1471 15.2377 15.0263 14.7306C14.607 14.5408 14.4209 14.0471 14.6106 13.6278Z" fill="#5D677A"/>
</svg>
