<svg width="33" height="32" viewBox="0 0 33 32" fill="none" xmlns="http://www.w3.org/2000/svg">
<path fill-rule="evenodd" clip-rule="evenodd" d="M2.6775 0C1.37175 0 0.3125 1.02697 0.3125 2.29218V29.7076C0.3125 30.9729 1.37188 31.999 2.6775 31.999H29.9475C31.2537 31.999 32.3125 30.9728 32.3125 29.7072V2.29218C32.3125 1.02697 31.2537 0 29.9475 0H2.6775ZM10.0366 12.3723V26.7783H5.24807V12.3723H10.0366ZM10.3522 7.91703C10.3522 9.29949 9.31282 10.4057 7.64332 10.4057L7.64295 10.4056H7.61195C6.00482 10.4056 4.96582 9.29937 4.96582 7.91691C4.96582 6.50308 6.0362 5.42773 7.67507 5.42773C9.31282 5.42773 10.3209 6.50308 10.3522 7.91703ZM17.4752 26.7783H12.6871L12.6869 26.7788C12.6869 26.7788 12.7498 13.7242 12.6873 12.3728H17.4756V14.4119C18.1121 13.4305 19.2513 12.0345 21.7912 12.0345C24.9416 12.0345 27.3036 14.0936 27.3036 18.5183V26.7783H22.5156V19.0723C22.5156 17.1355 21.8222 15.8145 20.0899 15.8145C18.7668 15.8145 17.9789 16.7054 17.6329 17.566C17.5064 17.8731 17.4752 18.3042 17.4752 18.7342V26.7783Z" fill="#818999"/>
</svg>
