<svg width="129" height="128" viewBox="0 0 129 128" fill="none" xmlns="http://www.w3.org/2000/svg">
<rect x="0.601562" width="128" height="128" rx="32.0002" fill="black"/>
<path fill-rule="evenodd" clip-rule="evenodd" d="M46.671 48.225C49.1299 48.225 51.1232 46.2496 51.1232 43.8127C51.1232 41.3759 49.1299 39.4004 46.671 39.4004C44.2121 39.4004 42.2188 41.3759 42.2188 43.8127C42.2188 46.2496 44.2121 48.225 46.671 48.225ZM82.5694 48.225C85.0283 48.225 87.0216 46.2496 87.0216 43.8127C87.0216 41.3759 85.0283 39.4004 82.5694 39.4004C80.1105 39.4004 78.1172 41.3759 78.1172 43.8127C78.1172 46.2496 80.1105 48.225 82.5694 48.225ZM64.7681 79.6063C51.8637 79.6063 39.4878 74.4801 30.363 65.3555L25.3281 70.3903C35.7882 80.8503 49.9752 86.7267 64.7681 86.7267C79.5609 86.7267 93.7479 80.8503 104.208 70.3903L99.1731 65.3555C90.0483 74.4801 77.6725 79.6063 64.7681 79.6063Z" fill="white"/>
</svg>
