<svg width="128" height="24" viewBox="0 0 128 24" fill="none" xmlns="http://www.w3.org/2000/svg">
<g clip-path="url(#clip0_6070_16132)">
<path d="M24 0H0V24H24V0Z" fill="#00B67A"/>
<path d="M50 0H26V24H50V0Z" fill="#00B67A"/>
<path d="M76 0H52V24H76V0Z" fill="#00B67A"/>
<path d="M102 0H78V24H102V0Z" fill="#00B67A"/>
<path d="M128 0H116V24H128V0Z" fill="#DCDCE6"/>
<path d="M116 0H104V24H116V0Z" fill="#00B67A"/>
<path d="M12.0016 16.1758L15.6516 15.2508L17.1766 19.9508L12.0016 16.1758ZM20.4016 10.1008H13.9766L12.0016 4.05078L10.0266 10.1008H3.60156L8.80156 13.8508L6.82656 19.9008L12.0266 16.1508L15.2266 13.8508L20.4016 10.1008Z" fill="white"/>
<path d="M38.0016 16.1758L41.6516 15.2508L43.1766 19.9508L38.0016 16.1758ZM46.4016 10.1008H39.9766L38.0016 4.05078L36.0266 10.1008H29.6016L34.8016 13.8508L32.8266 19.9008L38.0266 16.1508L41.2266 13.8508L46.4016 10.1008Z" fill="white"/>
<path d="M64.0016 16.1758L67.6516 15.2508L69.1766 19.9508L64.0016 16.1758ZM72.4016 10.1008H65.9766L64.0016 4.05078L62.0266 10.1008H55.6016L60.8016 13.8508L58.8266 19.9008L64.0266 16.1508L67.2266 13.8508L72.4016 10.1008Z" fill="white"/>
<path d="M90.0016 16.1758L93.6516 15.2508L95.1766 19.9508L90.0016 16.1758ZM98.4016 10.1008H91.9766L90.0016 4.05078L88.0266 10.1008H81.6016L86.8016 13.8508L84.8266 19.9008L90.0266 16.1508L93.2266 13.8508L98.4016 10.1008Z" fill="white"/>
<path d="M116.002 16.1758L119.652 15.2508L121.177 19.9508L116.002 16.1758ZM124.402 10.1008H117.977L116.002 4.05078L114.027 10.1008H107.602L112.802 13.8508L110.827 19.9008L116.027 16.1508L119.227 13.8508L124.402 10.1008Z" fill="white"/>
</g>
<defs>
<clipPath id="clip0_6070_16132">
<rect width="128" height="24" fill="white"/>
</clipPath>
</defs>
</svg>
